<svg width="640" height="331" viewBox="0 0 640 331" fill="none" xmlns="http://www.w3.org/2000/svg">
<path d="M7.9093 140.115C-7.90955 177.423 -2.77694 284.302 48.9956 320.979H611.391C640.15 314.087 654.857 241.15 614.274 223.855C547.418 188.823 646.904 88.1192 597.46 55.7154C541.508 19.0462 468.221 92.0681 414.246 83.8587C334.281 80.3844 339.465 -31.0208 262.084 8.45199C220.717 29.5539 212.364 83.8587 151.689 103.249C120.076 117.948 30.942 85.7944 7.9093 140.115Z" fill="#F1EFFC"/>
<path d="M416.979 72.6866C379.712 69.4311 366.767 45.2617 369.567 31.3806C376.407 -2.52117 475.885 7.62481 475.885 41.7969C475.885 57.4726 455.053 72.6866 416.979 72.6866Z" fill="#F1EFFC"/>
<path d="M146.426 80.3844C167.989 73.4568 194.933 45.7901 188.17 31.3806C176.327 6.1515 54.6034 51.894 77.8177 80.3844C86.9104 91.5435 129.501 86.3092 146.426 80.3844Z" fill="#F1EFFC"/>
<path d="M142.533 202.047C138.013 224.445 112.956 231.908 122.038 269.373L143.218 268.543C143.218 253.96 153.317 243.118 144.763 201.94C144.563 200.976 142.727 201.082 142.533 202.047Z" fill="#896EBC"/>
<path fillRule="evenodd" clipRule="evenodd" d="M143.207 205.934C143.379 205.928 143.523 206.062 143.53 206.234C143.759 212.426 143.326 217.173 142.55 221.254C142.118 223.524 141.58 225.585 140.993 227.57C142.183 227.681 143.08 227.634 143.91 227.409C144.826 227.161 145.684 226.689 146.778 225.924C146.919 225.826 147.113 225.86 147.211 226.001C147.31 226.142 147.276 226.336 147.135 226.435C146.018 227.215 145.091 227.734 144.073 228.01C143.117 228.27 142.105 228.309 140.811 228.178C140.428 229.443 140.023 230.695 139.615 231.955C139.252 233.078 138.886 234.207 138.533 235.358C137.894 237.435 137.28 239.621 136.751 242.062C138.666 242.037 140.211 241.817 141.559 241.21C142.989 240.565 144.229 239.469 145.451 237.635C145.547 237.492 145.74 237.453 145.883 237.549C146.026 237.644 146.065 237.837 145.969 237.981C144.7 239.885 143.378 241.073 141.815 241.778C140.32 242.451 138.634 242.67 136.619 242.687C135.974 245.804 135.469 249.348 135.224 253.607L134.602 253.571C134.856 249.168 135.385 245.52 136.061 242.312C136.597 239.772 137.223 237.51 137.876 235.373C136.288 234.053 135.053 233.019 134.222 231.713C133.353 230.346 132.94 228.707 132.94 226.18C132.94 226.008 133.079 225.868 133.251 225.868C133.423 225.868 133.563 226.008 133.563 226.18C133.563 228.636 133.964 230.146 134.748 231.379C135.485 232.538 136.573 233.477 138.075 234.728C138.392 233.71 138.711 232.725 139.027 231.749C139.457 230.42 139.882 229.108 140.289 227.751C140.894 225.735 141.448 223.655 141.894 221.364C140.844 220.807 140.037 220.257 139.409 219.456C138.74 218.604 138.294 217.498 137.931 215.865C137.894 215.697 137.999 215.531 138.167 215.493C138.335 215.456 138.502 215.562 138.539 215.73C138.893 217.321 139.312 218.324 139.899 219.071C140.418 219.732 141.085 220.215 142.015 220.722C142.733 216.783 143.127 212.195 142.907 206.257C142.901 206.085 143.035 205.941 143.207 205.934Z" fill="white"/>
<path d="M113.714 204.732C119.113 230.098 141.089 229.429 133.666 267.714L116.224 265.222C114.621 250.389 102.956 250.261 111.86 204.7C112.041 203.773 113.517 203.808 113.714 204.732Z" fill="#BAA6DE"/>
<path fillRule="evenodd" clipRule="evenodd" d="M112.902 208.431C113.074 208.431 113.214 208.571 113.214 208.743C113.214 216.528 114.353 222.477 115.892 227.759C116.433 229.617 117.024 231.394 117.633 233.141C118.727 232.42 119.613 231.77 120.289 230.918C121.024 229.992 121.527 228.805 121.729 226.981C121.748 226.811 121.902 226.687 122.073 226.706C122.244 226.725 122.367 226.879 122.348 227.05C122.136 228.964 121.6 230.269 120.777 231.305C120.008 232.275 119.002 232.989 117.845 233.747C118.123 234.535 118.404 235.32 118.685 236.105C119.363 237.998 120.041 239.892 120.674 241.845C121.72 245.072 122.648 248.473 123.266 252.347C125.489 251.554 127.157 250.662 128.424 249.331C129.755 247.933 130.67 246.021 131.286 243.147C131.322 242.979 131.488 242.872 131.656 242.908C131.824 242.944 131.931 243.109 131.895 243.278C131.265 246.218 130.312 248.251 128.875 249.76C127.49 251.216 125.681 252.157 123.362 252.973C123.694 255.2 123.921 257.581 124.011 260.173C124.067 261.776 124.069 263.458 124.011 265.233L123.389 265.213C123.443 263.565 123.444 262 123.399 260.505C121.464 260.56 119.976 260.524 118.615 260.198C117.171 259.852 115.891 259.184 114.371 257.993C114.236 257.887 114.212 257.691 114.318 257.556C114.424 257.42 114.62 257.396 114.756 257.503C116.226 258.655 117.426 259.272 118.76 259.592C120.036 259.898 121.452 259.937 123.377 259.882C123.277 257.337 123.043 254.998 122.708 252.811C122.114 248.937 121.206 245.539 120.17 242.313C118.619 242.688 117.346 242.876 116.087 242.673C114.746 242.457 113.458 241.804 111.878 240.549C111.743 240.442 111.721 240.246 111.828 240.112C111.935 239.977 112.131 239.954 112.265 240.061C113.8 241.28 114.99 241.865 116.186 242.058C117.309 242.239 118.47 242.081 119.977 241.719C119.377 239.887 118.741 238.111 118.102 236.325C117.793 235.462 117.483 234.597 117.177 233.723C116.543 231.918 115.925 230.078 115.357 228.151C113.195 228.063 110.565 227.218 109.7 224.623C109.645 224.459 109.733 224.283 109.897 224.229C110.06 224.174 110.236 224.262 110.291 224.426C111.005 226.57 113.159 227.39 115.174 227.518C113.682 222.291 112.591 216.392 112.591 208.743C112.591 208.571 112.73 208.431 112.902 208.431Z" fill="white"/>
<path d="M91.1303 210.896C96.8753 234.968 121.377 231.849 118.992 265.637H102.52C100.906 255.955 87.4965 249.016 90.1951 210.939C90.2298 210.449 91.0163 210.419 91.1303 210.896Z" fill="#9E83CF"/>
<path fillRule="evenodd" clipRule="evenodd" d="M91.712 216.319C91.8839 216.314 92.0274 216.449 92.0325 216.621C92.3371 226.98 94.8862 233.729 98.0626 239.227C98.627 238.046 99.0154 237.067 99.2329 236.051C99.4807 234.895 99.5103 233.673 99.3027 232.035C99.2811 231.865 99.4019 231.709 99.5726 231.687C99.7432 231.666 99.8991 231.786 99.9207 231.957C100.135 233.643 100.108 234.938 99.842 236.182C99.586 237.377 99.1113 238.508 98.4419 239.873C99.6343 241.871 100.905 243.713 102.177 245.522C102.368 245.793 102.558 246.063 102.748 246.332C103.546 247.463 104.34 248.589 105.108 249.735C106.067 248.48 106.761 247.463 107.278 246.396C107.838 245.238 108.195 244.008 108.44 242.334C108.465 242.163 108.623 242.046 108.793 242.07C108.964 242.095 109.081 242.254 109.056 242.424C108.805 244.145 108.433 245.439 107.838 246.668C107.271 247.84 106.506 248.941 105.472 250.284C106.886 252.434 108.201 254.679 109.279 257.207C109.843 258.528 110.342 259.925 110.758 261.427C112.166 260.612 113.167 259.937 113.995 259.203C114.886 258.411 115.587 257.541 116.378 256.329C116.472 256.184 116.665 256.144 116.809 256.238C116.953 256.332 116.994 256.525 116.9 256.669C116.09 257.911 115.354 258.829 114.408 259.668C113.507 260.469 112.424 261.189 110.924 262.05C111.427 264.012 111.787 266.15 111.966 268.519L111.345 268.566C111.162 266.139 110.785 263.965 110.261 261.977C109.856 260.442 109.362 259.017 108.8 257.673C107.021 257.929 105.58 258.002 104.114 257.821C102.584 257.633 101.044 257.169 99.0793 256.372C98.9199 256.307 98.8431 256.126 98.9078 255.966C98.9725 255.807 99.1542 255.73 99.3136 255.795C101.253 256.582 102.736 257.024 104.19 257.203C105.537 257.369 106.875 257.312 108.545 257.079C107.486 254.677 106.208 252.524 104.829 250.441C103.994 249.178 103.123 247.944 102.241 246.694C102.085 246.473 101.929 246.251 101.773 246.029C100.381 246.167 99.2326 246.21 98.1023 245.883C96.917 245.541 95.7861 244.803 94.4083 243.43C94.2865 243.308 94.2862 243.111 94.4076 242.989C94.529 242.868 94.7262 242.867 94.8481 242.989C96.1862 244.322 97.2291 244.982 98.2753 245.285C99.1973 245.552 100.149 245.549 101.36 245.442C100.158 243.726 98.9537 241.959 97.8199 240.046C94.4592 234.374 91.7271 227.429 91.4098 216.64C91.4047 216.468 91.54 216.324 91.712 216.319Z" fill="white"/>
<path d="M162.06 220.544C163.709 242.352 158.707 256.745 148.202 265.634H128.544C134.619 243.766 152.277 242.432 161.238 220.43C161.405 220.02 162.026 220.102 162.06 220.544Z" fill="#AC94D7"/>
<path fillRule="evenodd" clipRule="evenodd" d="M160.694 225.456C160.865 225.474 160.989 225.628 160.97 225.799C160.077 234.136 158.011 238.893 155.325 242.562C153.856 244.568 152.205 246.243 150.486 247.987C150.433 248.041 150.379 248.096 150.325 248.15C152.652 249.985 155.063 250.31 157.667 249.554C157.832 249.506 158.005 249.601 158.053 249.766C158.101 249.931 158.006 250.104 157.841 250.152C155.035 250.967 152.395 250.6 149.886 248.597C148.27 250.242 146.599 251.995 144.938 254.194C143.657 255.89 142.382 257.854 141.145 260.238C144.21 261.793 147.365 261.845 150.207 261.178C150.375 261.139 150.542 261.243 150.582 261.41C150.621 261.577 150.517 261.745 150.349 261.784C147.398 262.477 144.086 262.429 140.862 260.793C140.063 262.384 139.281 264.159 138.526 266.159L137.943 265.939C138.75 263.801 139.589 261.914 140.449 260.229C141.702 257.775 142.997 255.752 144.301 254.005C142.474 251.523 141.661 249.003 142.079 246.071C142.104 245.901 142.261 245.783 142.432 245.807C142.602 245.831 142.72 245.989 142.696 246.159C142.313 248.84 143.021 251.159 144.694 253.487C146.365 251.319 148.042 249.582 149.641 247.957C149.773 247.822 149.905 247.689 150.037 247.556C151.696 245.872 153.258 244.288 154.657 242.418C152.825 240.678 152.002 238.106 152.888 235.226C152.938 235.062 153.113 234.969 153.277 235.02C153.441 235.07 153.534 235.245 153.483 235.409C152.678 238.026 153.404 240.33 155.027 241.91C157.538 238.383 159.49 233.766 160.351 225.733C160.369 225.562 160.523 225.438 160.694 225.456Z" fill="white"/>
<path d="M98.3662 266.871C98.3662 265.954 99.1099 265.21 100.027 265.21H151.524C152.441 265.21 153.185 265.954 153.185 266.871V303.417C153.185 309.839 147.979 315.046 141.557 315.046H109.994C103.572 315.046 98.3662 309.839 98.3662 303.417V266.871Z" fill="#CABDE7"/>
<path d="M109.995 315.877C109.995 315.418 110.366 315.046 110.825 315.046H141.557C142.016 315.046 142.388 315.418 142.388 315.877V316.708C142.388 317.166 142.016 317.538 141.557 317.538H110.825C110.366 317.538 109.995 317.166 109.995 316.708V315.877Z" fill="#AC94D7"/>
<path d="M109.994 315.046H119.131L115.54 311.284C112.25 307.838 110.437 303.244 110.485 298.48L110.825 265.211H100.027C99.1099 265.211 98.3661 265.954 98.3661 266.872V303.418C98.3661 309.84 103.572 315.046 109.994 315.046Z" fill="#AC94D7"/>
<path d="M510.524 282.288H540.829V314.245C540.829 316.071 539.349 317.551 537.523 317.551H513.83C512.005 317.551 510.524 316.071 510.524 314.245V282.288Z" fill="#9E83CF" fill-opacity="0.41"/>
<path d="M510.524 314.245V282.288H516.034V308.157C516.034 312.035 518.294 315.557 521.82 317.173L522.646 317.551H513.83C512.004 317.551 510.524 316.071 510.524 314.245Z" fill="#AE98D8" fill-opacity="0.62"/>
<path fillRule="evenodd" clipRule="evenodd" d="M509.422 291.102H511.075V288.898H509.422C506.683 288.898 504.463 291.119 504.463 293.857V303.224C504.463 305.963 506.683 308.183 509.422 308.183H511.075V305.979H509.422C507.9 305.979 506.667 304.746 506.667 303.224V293.857C506.667 292.336 507.9 291.102 509.422 291.102Z" fill="#BBA8DF"/>
<path d="M528.359 260.527C528.359 262.823 533.459 262.591 533.459 267.184C533.459 272.222 521.952 271.374 528.359 279.811C521.495 278.663 519.435 273.842 520.187 271.374C521.183 268.102 524.927 269.068 524.927 266.265C524.453 263.462 518.843 264.292 517.106 261.095C515.328 257.825 518.172 253.922 524.469 252.49C527.55 251.789 524.334 247.664 518.172 246.964C525.283 245.796 535.224 249.506 533.459 256.393C532.274 259.78 528.359 258.231 528.359 260.527Z" fill="#DFD8F2"/>
<path d="M539.336 288.444L537.407 285.965L536.305 288.444H539.336Z" fill="#BBA8DF"/>
<path d="M522.442 309.726L519.683 308.224L519.664 310.937L522.442 309.726Z" fill="#BBA8DF"/>
<path d="M521.901 293.595L519.136 294.13L520.627 296.037L521.901 293.595Z" fill="#BBA8DF"/>
<path d="M538.982 298.004L536.217 298.539L537.708 300.447L538.982 298.004Z" fill="#BBA8DF"/>
<path d="M532.979 294.143L529.839 294.068L531.062 296.49L532.979 294.143Z" fill="#BBA8DF"/>
<path d="M534.32 305.248L532.306 307.659L534.963 308.209L534.32 305.248Z" fill="#BBA8DF"/>
<path d="M529.226 288.126L527.654 286.759L527.254 288.513L529.226 288.126Z" fill="#BBA8DF"/>
<path d="M527.101 313.405L525.654 314.902L527.385 315.394L527.101 313.405Z" fill="#BBA8DF"/>
<path d="M537.535 313.097L535.507 313.573L536.697 314.923L537.535 313.097Z" fill="#BBA8DF"/>
<path d="M526.471 302.458L524.9 301.092L524.5 302.846L526.471 302.458Z" fill="#BBA8DF"/>
<path d="M520.702 286.016L520.628 283.934L519.073 284.839L520.702 286.016Z" fill="#BBA8DF"/>
<path d="M43.6431 319.532C43.6431 318.427 44.5385 317.532 45.6431 317.532H620.409C621.513 317.532 622.409 318.427 622.409 319.532V328.264C622.409 329.369 621.513 330.264 620.409 330.264H45.6431C44.5385 330.264 43.6431 329.369 43.6431 328.264V319.532Z" fill="#C5B5E2"/>
<path d="M425.591 45.492C425.591 40.9684 429.258 37.3012 433.782 37.3012H553.099C557.623 37.3012 561.29 40.9684 561.29 45.492V144.809C561.29 149.333 557.623 153 553.099 153H433.782C429.258 153 425.591 149.333 425.591 144.809V45.492Z" fill="#CABCE6"/>
<path d="M440.45 53H454.33" stroke="white" stroke-opacity="0.82" stroke-width="2" stroke-linecap="round"/>
<path d="M460.862 53H518.831" stroke="white" stroke-opacity="0.82" stroke-width="2" stroke-linecap="round"/>
<path d="M440.45 66.0634H466.577" stroke="white" stroke-opacity="0.82" stroke-width="2" stroke-linecap="round"/>
<path d="M503.318 66.0634H550.673" stroke="white" stroke-opacity="0.82" stroke-width="2" stroke-linecap="round"/>
<path d="M473.108 66.0634H496.786" stroke="white" stroke-opacity="0.82" stroke-width="2" stroke-linecap="round"/>
<path d="M441.267 79.1268H448.615" stroke="white" stroke-opacity="0.82" stroke-width="2" stroke-linecap="round"/>
<path d="M455.146 79.1268H519.647" stroke="white" stroke-opacity="0.82" stroke-width="2" stroke-linecap="round"/>
<path d="M441.267 92.1902H448.615" stroke="white" stroke-opacity="0.82" stroke-width="2" stroke-linecap="round"/>
<path d="M455.146 92.1902H510.666" stroke="white" stroke-opacity="0.82" stroke-width="2" stroke-linecap="round"/>
<path d="M441.267 111.253H455.146" stroke="white" stroke-opacity="0.82" stroke-width="2" stroke-linecap="round"/>
<path d="M461.678 111.253H519.647" stroke="white" stroke-opacity="0.82" stroke-width="2" stroke-linecap="round"/>
<path d="M441.267 124.317H448.615" stroke="white" stroke-opacity="0.82" stroke-width="2" stroke-linecap="round"/>
<path d="M455.146 124.317H496.786" stroke="white" stroke-opacity="0.82" stroke-width="2" stroke-linecap="round"/>
<path d="M441.267 137.738H446.174" stroke="white" stroke-opacity="0.82" stroke-width="2" stroke-linecap="round"/>
<path d="M452.125 137.738H472.566" stroke="white" stroke-opacity="0.82" stroke-width="2" stroke-linecap="round"/>
<path d="M478.391 137.738H510.543" stroke="white" stroke-opacity="0.82" stroke-width="2" stroke-linecap="round"/>
<path d="M153.185 98.5259C153.185 93.4179 157.326 89.277 162.434 89.277H195.814C200.922 89.277 205.063 93.4179 205.063 98.5259V131.906C205.063 137.014 200.922 141.155 195.814 141.155H162.434C157.326 141.155 153.185 137.014 153.185 131.906V98.5259Z" fill="#D4CAED"/>
<path d="M169.471 107.353L161 114.765L169.471 122.176" stroke="white" stroke-opacity="0.83" stroke-width="2" stroke-linecap="round" stroke-linejoin="round"/>
<path d="M189.589 107.353L197 114.765L189.589 122.176" stroke="white" stroke-opacity="0.83" stroke-width="2" stroke-linecap="round" stroke-linejoin="round"/>
<path d="M182.797 101L175.46 128.181" stroke="white" stroke-opacity="0.83" stroke-width="2" stroke-linecap="round"/>
<path d="M419.287 276.37L405.493 205.564C400.58 177.206 380.513 162.013 351.985 158.207L318.222 152.965L282.531 156.689C255.127 158.672 238.876 175.79 234.793 202.961L218.182 276.37C215.573 308.803 221.36 317.554 251.336 317.554H330.26H397.063C420.375 317.554 425.281 290.849 419.287 276.37Z" fill="#FD6F8D"/>
<path d="M354.543 165.128L293.457 159.445L300.844 283.322L329.541 287.868L338.917 293.55L354.543 218.826V165.128Z" fill="white"/>
<path d="M316.424 109.776C315.885 116.882 312.413 122.413 308.668 122.129C304.923 121.845 302.324 115.854 302.862 108.748C303.401 101.641 306.873 96.1103 310.618 96.3942C314.363 96.678 316.962 102.669 316.424 109.776Z" fill="#FEC3BE"/>
<path d="M314.282 113.2L342.429 123.8L347.282 166.683C340.973 187.402 310.884 180.174 302.149 162.828L314.282 113.2Z" fill="#FEC3BE"/>
<path d="M311.399 124.392L310.395 129.121C315.118 161.652 341.264 164.494 346.317 157.926L345.875 154.768L311.399 124.392Z" fill="#E5B0AB"/>
<path d="M375.037 114.954C368.946 141.762 352.744 156.752 338.496 155.672C320.125 154.28 306.7 133.792 308.51 109.912C310.32 86.0321 326.68 67.8022 345.05 69.1945C363.421 70.5869 377.999 83.1504 375.037 114.954Z" fill="#FEC3BE"/>
<path d="M337.178 89.9367C334.307 94.2414 326.713 95.8262 325.214 95.6763C317.556 95.6763 316.052 93.2848 310.856 102.373C308.942 105.721 308.942 107.634 308.463 110.982C303.677 102.851 308.463 97.5895 306.549 93.2848C304.156 87.9042 303.199 88.5016 303.199 84.6751C303.677 80.8486 308.571 79.7324 308.463 75.4276C307.985 56.2951 328.356 62.3806 333.369 55.7361C341.989 47.7779 353.262 53.5819 357.902 57.7241C362.543 61.8664 365.344 61.9875 370.497 62.6266C379.8 63.7806 384.628 71.1018 383.122 84.6751C382.79 87.6718 382.469 91.6521 384.079 95.6763C387.908 105.243 380.635 109.175 373.341 120.655C375.165 117.785 376.298 102.509 372.206 102.389C370.241 102.331 371.021 97.3735 369.243 98.068C367.46 98.7646 364.055 100.745 362.543 99.5029C360.863 98.1222 358.85 89.9367 356.322 89.9367C354.84 89.9367 352.014 92.931 349.143 93.2848C343.934 93.9267 341.326 83.7185 337.178 89.9367Z" fill="#231768"/>
<path d="M305.964 283.822C309.761 232.275 301.408 166.207 304.488 153.832C292.154 154.395 275.239 170.11 269.399 180.879C268.402 182.717 269.416 184.934 271.485 185.243C277.83 186.189 284.813 185.066 290.397 185.719C293.082 186.033 293.271 189.223 291.351 191.127C287.857 194.59 285.318 198.96 282.762 203.03C280.061 207.329 279.583 212.91 281.893 217.431C294.508 242.114 294.091 260.567 296.087 282.44C300.267 282.908 301.392 283.143 305.964 283.822Z" fill="#E4647F"/>
<path fillRule="evenodd" clipRule="evenodd" d="M275.507 227.707C275.842 227.71 276.123 227.961 276.164 228.293L277.539 239.477L279.522 233.284C279.608 233.014 279.855 232.828 280.138 232.82C280.422 232.812 280.679 232.984 280.781 233.248L282.527 237.793C282.659 238.137 282.487 238.523 282.143 238.656C281.799 238.788 281.413 238.616 281.28 238.272L280.215 235.498L277.883 242.781C277.788 243.079 277.497 243.271 277.185 243.242C276.873 243.213 276.623 242.97 276.585 242.659L275.455 233.474C272.714 252.711 270.658 264.57 265.373 281.064C282.355 280.333 299.078 282.429 330.305 286.795C330.67 286.846 330.925 287.184 330.874 287.549C330.823 287.914 330.485 288.169 330.12 288.118C298.276 283.665 281.645 281.596 264.475 282.442C264.256 282.453 264.046 282.356 263.912 282.181C263.779 282.007 263.74 281.778 263.807 281.57C269.728 263.312 271.662 250.936 274.84 228.282C274.887 227.95 275.172 227.704 275.507 227.707Z" fill="#E4647F"/>
<path d="M332.999 287.453C346.503 246.482 350.212 182.444 346.053 156.222C362.696 161.664 370.398 180.334 373.085 190.175C373.662 192.289 372.003 194.226 369.84 193.881C363.039 192.796 357.154 189.789 356.498 192.742C356.413 193.128 356.569 193.522 356.811 193.834L361.585 199.995C366.087 205.804 367.562 213.406 365.56 220.477L345.653 290.797L332.999 287.453Z" fill="#E4647F"/>
<path d="M355.169 199.105C355.495 197.955 356.544 197.162 357.739 197.162H498.351C500.123 197.162 501.404 198.856 500.921 200.56L470.237 308.923C469.912 310.073 468.863 310.866 467.668 310.866H327.055C325.284 310.866 324.003 309.173 324.486 307.468L355.169 199.105Z" fill="#6B41B3"/>
<path d="M258.869 313.653C258.869 311.499 260.615 309.752 262.77 309.752H464.539C466.694 309.752 468.441 311.499 468.441 313.653V313.653C468.441 315.808 466.694 317.555 464.539 317.555H262.77C260.615 317.555 258.869 315.808 258.869 313.653V313.653Z" fill="#6B41B3"/>
<path d="M346.273 113.514C343.548 120.999 335.42 124.912 328.12 122.253C320.819 119.595 317.111 111.372 319.836 103.887C322.562 96.4025 330.689 92.4897 337.99 95.148C345.29 97.8063 348.999 106.029 346.273 113.514Z" fill="white" fill-opacity="0.32"/>
<path fillRule="evenodd" clipRule="evenodd" d="M328.693 120.678C335.087 123.006 342.276 119.593 344.698 112.94C347.121 106.288 343.81 99.0513 337.416 96.7232C331.022 94.395 323.834 97.8087 321.411 104.461C318.989 111.113 322.3 118.35 328.693 120.678ZM328.12 122.253C335.42 124.912 343.548 120.999 346.273 113.514C348.999 106.029 345.29 97.8063 337.99 95.148C330.689 92.4897 322.562 96.4025 319.836 103.887C317.111 111.372 320.819 119.595 328.12 122.253Z" fill="white"/>
<path fillRule="evenodd" clipRule="evenodd" d="M336.071 99.1923C336.15 98.9749 336.391 98.8628 336.608 98.9419C341.879 100.861 344.541 106.789 342.582 112.168C342.503 112.386 342.262 112.498 342.045 112.419C341.827 112.34 341.715 112.099 341.794 111.882C343.602 106.918 341.139 101.484 336.321 99.7295C336.104 99.6503 335.992 99.4098 336.071 99.1923Z" fill="white"/>
<path fillRule="evenodd" clipRule="evenodd" d="M313.677 97.8033L321.227 104.348L320.129 105.615L312.579 99.0699L313.677 97.8033Z" fill="white"/>
<path d="M377.027 121.869C374.302 129.354 366.389 133.345 359.354 130.784C352.318 128.222 348.824 120.077 351.55 112.592C354.275 105.107 362.188 101.116 369.224 103.678C376.259 106.24 379.753 114.385 377.027 121.869Z" fill="white" fill-opacity="0.32"/>
<path fillRule="evenodd" clipRule="evenodd" d="M359.927 129.209C366.002 131.421 373.009 128.004 375.452 121.296C377.895 114.588 374.725 107.465 368.65 105.253C362.575 103.041 355.568 106.458 353.125 113.166C350.682 119.874 353.852 126.996 359.927 129.209ZM359.354 130.784C366.389 133.345 374.302 129.354 377.027 121.869C379.753 114.385 376.259 106.24 369.224 103.678C362.188 101.116 354.275 105.107 351.55 112.592C348.824 120.077 352.318 128.222 359.354 130.784Z" fill="white"/>
<path fillRule="evenodd" clipRule="evenodd" d="M366.721 108.556C366.801 108.338 367.041 108.226 367.259 108.306C372.529 110.225 375.191 116.152 373.232 121.532C373.153 121.75 372.913 121.862 372.695 121.782C372.478 121.703 372.366 121.463 372.445 121.245C374.252 116.282 371.789 110.847 366.972 109.093C366.754 109.014 366.642 108.773 366.721 108.556Z" fill="white"/>
<path fillRule="evenodd" clipRule="evenodd" d="M349.226 112.614C348.387 112.368 347.254 112.503 345.452 113.185L344.859 111.617C346.737 110.906 348.311 110.599 349.698 111.006C351.116 111.421 352.13 112.517 353.049 114.075L351.605 114.926C350.765 113.502 350.034 112.851 349.226 112.614Z" fill="white"/>
<path d="M426.53 261.403C423.88 268.24 417.707 272.223 412.742 270.299C407.777 268.375 405.9 261.273 408.549 254.436C411.199 247.599 417.372 243.616 422.337 245.54C427.302 247.464 429.179 254.566 426.53 261.403Z" fill="#CABDE7"/>
<path fillRule="evenodd" clipRule="evenodd" d="M431.377 248.829C430.293 244.727 427.867 241.562 424.399 240.218L424.721 239.388C428.52 240.86 431.101 244.3 432.238 248.601C433.375 252.903 433.081 258.1 431.112 263.181L430.282 262.859C432.19 257.934 432.461 252.93 431.377 248.829ZM420.033 239.561C414.114 239.937 407.851 245.1 404.796 252.983C403.76 255.657 403.206 258.356 403.09 260.922L402.201 260.882C402.321 258.217 402.896 255.423 403.966 252.661C407.103 244.567 413.605 239.077 419.977 238.673L420.033 239.561ZM410.678 275.625C416.542 277.897 423.764 274.29 428.193 267.083L428.952 267.549C424.412 274.935 416.796 278.95 410.357 276.455C406.614 275.005 404.054 271.645 402.892 267.434L403.75 267.197C404.857 271.21 407.262 274.301 410.678 275.625Z" fill="#CABDE7"/>
<path fillRule="evenodd" clipRule="evenodd" d="M426.984 233.552C418.957 230.441 409.313 234.823 403.116 243.845L402.382 243.341C408.708 234.13 418.746 229.404 427.305 232.722C431.098 234.191 434.048 237.034 436.017 240.701L435.233 241.122C433.349 237.614 430.551 234.934 426.984 233.552ZM435.67 264.948C438.146 258.56 438.564 252.047 437.263 246.553L438.129 246.348C439.475 252.031 439.035 258.728 436.5 265.27C432.677 275.135 425.084 282.071 417.205 283.775L417.017 282.904C424.54 281.278 431.929 274.601 435.67 264.948ZM398.063 270.246C399.652 275.931 403.135 280.37 408.095 282.293L407.774 283.123C402.492 281.076 398.852 276.373 397.206 270.486C395.559 264.599 395.895 257.5 398.579 250.575L399.409 250.896C396.788 257.66 396.473 264.562 398.063 270.246Z" fill="#CABDE7"/>
</svg>
